<?xml version="1.0" encoding="iso-8859-1"?>
<!-- Generator: Adobe Illustrator 19.0.0, SVG Export Plug-In . SVG Version: 6.00 Build 0)  -->
<svg version="1.1" id="Layer_1" xmlns="http://www.w3.org/2000/svg" xmlns:xlink="http://www.w3.org/1999/xlink" x="0px" y="0px"
	 viewBox="0 0 512 512" style="enable-background:new 0 0 512 512;" xml:space="preserve">
<circle style="fill:#CDFABE;" cx="256" cy="246.857" r="237.714"/>
<path style="fill:#BCF8A9;" d="M482.535,174.927c-8.457-0.786-16.937-1.213-25.392-1.213c-51.983,0-100.608,14.57-142.069,39.799
	c-5.162,3.142-11.96,0.791-13.63-5.016c-5.161-17.951-12.478-34.967-21.473-50.906c30.53-44.184,75.574-77.547,128.343-93.055
	c-5.616-4.695-11.384-9.214-17.422-13.384c-25.875,9.074-49.64,22.214-70.752,38.479c-7.989-28.779-21.007-55.488-38.139-79.046
	c-7.96-0.866-16.035-1.336-24.211-1.398c22.275,26.688,38.52,58.535,46.81,93.431c-12.867,11.637-24.559,24.491-34.823,38.417
	c-32.073-47.341-80.685-82.537-137.662-97.082C63.85,85.725,18.286,160.965,18.286,246.857c0,110.927,75.984,204.098,178.741,230.33
	c28.31-17.322,52.629-40.465,71.499-67.672c14.142,24.95,32.605,47.129,54.462,65.419
	c98.658-28.933,170.727-120.062,170.727-228.078C493.714,221.768,489.742,197.626,482.535,174.927z"/>
<path style="fill:#AAF096;" d="M103.422,74.039L103.422,74.039c-3.361-2.549-8.133-2.368-11.189,0.539
	c-42.198,40.131-69.656,95.609-73.458,157.489c18.495-2.231,37.003-5.295,55.475-8.579c-0.687-7.363-1.107-14.802-1.107-22.345
	c0-42.33,12.872-81.528,32.496-115.881C107.807,81.465,106.905,76.681,103.422,74.039z"/>
<path style="fill:#CDFABE;" d="M457.143,192c17.097,0,33.791,1.711,49.95,4.907c3.197,16.159,4.907,32.853,4.907,49.95
	c0,141.384-114.615,256-256,256c-17.097,0-33.791-1.711-49.95-4.907c-3.197-16.159-4.907-32.853-4.907-49.95
	C201.143,306.615,315.758,192,457.143,192z"/>
<path style="fill:#A0E682;" d="M54.857,192c-17.097,0-33.791,1.711-49.95,4.907C1.711,213.066,0,229.76,0,246.857
	c0,141.384,114.615,256,256,256c17.097,0,33.791-1.711,49.95-4.907c3.197-16.159,4.907-32.853,4.907-49.95
	C310.857,306.615,196.242,192,54.857,192z"/>
<path style="fill:#AAF096;" d="M73.815,192.773c-0.397,5.793-0.672,11.619-0.672,17.513c0,135,104.521,245.515,237.042,255.227
	c0.397-5.793,0.672-11.619,0.672-17.513C310.857,312.999,206.336,202.485,73.815,192.773z"/>
<g>
</g>
<g>
</g>
<g>
</g>
<g>
</g>
<g>
</g>
<g>
</g>
<g>
</g>
<g>
</g>
<g>
</g>
<g>
</g>
<g>
</g>
<g>
</g>
<g>
</g>
<g>
</g>
<g>
</g>
</svg>
